<?xml version="1.0" encoding="utf-8"?>
<!-- Generator: Adobe Illustrator 18.1.0, SVG Export Plug-In . SVG Version: 6.00 Build 0)  -->
<svg version="1.1" id="Layer_1" xmlns="http://www.w3.org/2000/svg" xmlns:xlink="http://www.w3.org/1999/xlink" x="0px" y="0px"
	 viewBox="0 0 48 48" enable-background="new 0 0 48 48" xml:space="preserve">
<g>
	<path fill="#2F2F2F" d="M0.8,3.5v40.9c0,1.7,1.4,3,3,3h29.6l13.8-13.8V3.5c0-1.7-1.4-3-3-3H3.8C2.2,0.5,0.8,1.9,0.8,3.5z"/>
	<path fill="#979797" d="M22.2,28.1c-3.7,0-3.4-2.5-3.3-2.9c2-0.8,3.4-2.7,3.5-4.9h0l0,0c0.8,0,1.5-0.7,1.5-1.5s-0.7-1.5-1.5-1.5
		v-1.2c0-0.1,0-0.2,0-0.2c0-3.1-2.5-5.7-5.7-5.7S11,12.9,11,16c0,0.2,0,0.5,0,0.7v0.7c-0.8,0-1.5,0.7-1.5,1.5c0,0.8,0.6,1.4,1.4,1.5
		c0.1,2.2,1.5,4,3.4,4.9h0c0,0,0.7,2.9-3.3,2.9c-2.4,0-4.5,1.5-5.3,3.7c-0.1,0.3,0.1,0.6,0.5,0.6H27c0.3,0,0.6-0.3,0.5-0.6
		C26.7,29.7,24.6,28.1,22.2,28.1z"/>
	<path fill="#D3D3D3" d="M36.9,28.1c-3.7,0-3.4-2.5-3.3-2.9c2-0.8,3.4-2.7,3.5-4.9h0l0,0c0.8,0,1.5-0.7,1.5-1.5s-0.7-1.5-1.5-1.5
		v-1.2c0-0.1,0-0.2,0-0.2c0-3.1-2.5-5.7-5.7-5.7c-3.1,0-5.7,2.5-5.7,5.7c0,0.2,0,0.5,0,0.7v0.7c-0.8,0-1.5,0.7-1.5,1.5
		c0,0.8,0.6,1.4,1.4,1.5c0.1,2.2,1.5,4,3.4,4.9h0c0,0,0.7,2.9-3.3,2.9c-2.4,0-4.5,1.5-5.3,3.7c-0.1,0.3,0.1,0.6,0.5,0.6h20.8
		c0.3,0,0.6-0.3,0.5-0.6C41.4,29.7,39.3,28.1,36.9,28.1z"/>
	<path fill="#009BDA" d="M30.5,30.2c-4.3,0-4-3-3.9-3.4c2.3-0.9,3.9-3.1,4.1-5.7h0l0,0c0.9,0,1.7-0.8,1.7-1.7s-0.8-1.7-1.7-1.7v-1.4
		c0-0.1,0-0.2,0-0.3c0-3.7-3-6.6-6.6-6.6s-6.6,3-6.6,6.6c0,0.3,0,0.5,0.1,0.8v0.9c-0.9,0-1.7,0.8-1.7,1.7c0,0.9,0.7,1.7,1.7,1.7
		c0.1,2.6,1.7,4.7,4,5.7h0c0,0,0.8,3.4-3.9,3.4c-2.9,0-5.3,1.8-6.2,4.4c-0.1,0.3,0.1,0.6,0.5,0.6h24.5c0.3,0,0.6-0.3,0.5-0.6
		C35.8,32.1,33.4,30.2,30.5,30.2z"/>
	<polygon fill="#F1F1F1" points="27.5,18.6 25,20.1 22.5,21.5 22.5,18.6 22.5,15.7 25,17.2 	"/>
	<polygon fill="#212121" points="19.5,47.5 33.2,33.7 33.2,47.5 	"/>
	<polygon fill="#393939" points="33.2,47.5 33.2,40.5 33.2,33.5 47.2,33.5 	"/>
</g>
</svg>
