<svg xmlns="http://www.w3.org/2000/svg" width="470.242" height="497.039" viewBox="0 0 470.242 497.039">
  <path fill="#FFF" d="M.007 30.39s56.666-4.334 75.022-8.11C93.594 18.457 147.69 0 147.69 0s6.773 24.932 10.618 32.885c19.066 39.437 61.516 117.045 80.585 154.81 20.548 40.693 72.346 153.602 66.102 153.932-.434.893 38.834-106.323 70.786-164.045 33.815-61.088 96.982-164.78 94.382-157.303.448-5.03-74.71 151.918-94 228.24-9.98 39.49-25.133 143.15-43.708 179.4-13.197 25.755-95.585 67.632-97.374 69.12 0 0-10.567-53.415-16.873-67.65C177.83 338.253-1.275 36.626.007 30.39M85.49 134.02l11.29 20.226 73.616-7.93-12.846-23.01-44.392 9.072 31.26-32.593-13.245-23.725-45.684 57.96zm123.566 81.542l-12.73-22.802-28.628 15.983c-5.416 3.023-9.655 4.25-12.715 3.682-3.062-.57-5.354-2.218-6.875-4.943-1.397-2.503-1.697-4.883-.9-7.14s3.063-4.43 6.798-6.515l32.718-18.267-12.792-22.914-37.873 21.144c-7.808 4.358-12.59 9.368-14.353 15.03-1.763 5.663-.892 11.632 2.61 17.906 2.628 4.706 5.684 8.205 9.17 10.498 3.483 2.292 8.09 3.92 13.823 4.886l-9.636 5.38 11.886 21.29 59.496-33.218zm-51.335 47.84l12.762 22.857 82.133-45.855-12.762-22.858L157.72 263.4zm79.962 36.34c2.237 1.2 4.398 3.67 6.484 7.404 1.626 2.913 2.203 5.262 1.73 7.045-.476 1.783-2.113 3.458-4.914 5.022-2.706-2.213-5.112-4.396-7.22-6.55-2.11-2.154-6.412-7.028-12.904-14.622-5.403-6.342-10.3-10.025-14.694-11.05-4.394-1.026-8.85-.277-13.37 2.245-4.817 2.69-7.844 6.792-9.076 12.307-1.233 5.514.132 11.818 4.094 18.916 2.982 5.34 6.42 9.57 10.316 12.686 2.88 2.263 6.59 4.084 11.136 5.468-1.573 1.22-2.688 2.185-3.344 2.896-.658.71-1.512 1.92-2.563 3.635l11.948 21.4c1.798-2.57 3.39-4.477 4.78-5.718 1.39-1.24 3.485-2.643 6.286-4.206l26.276-14.67c2.802-1.565 5.43-3.768 7.886-6.608 2.456-2.84 3.98-5.702 4.578-8.582.885-4.12.553-8.465-.996-13.038s-4.23-10.277-8.047-17.112c-2.377-4.26-4.905-8.04-7.584-11.347-2.68-3.306-5.18-5.68-7.505-7.126-3.233-2.017-6.375-3.19-9.425-3.52-3.05-.332-6.71.156-10.98 1.462l9.872 23.075c3.077-.544 5.49-.346 7.237.588zm-11.827 27.915c-2.84 1.585-5.402 2.415-7.686 2.49-2.287.074-4.655-.635-7.107-2.133-2.453-1.496-4.388-3.515-5.805-6.055-1.356-2.43-1.814-4.586-1.373-6.474.44-1.887 1.558-3.33 3.35-4.33 1.57-.877 3.324-1.024 5.266-.442 1.885.565 4.735 2.82 8.553 6.763 2.756 2.92 5.57 5.635 8.443 8.146l-3.64 2.034z"/>
</svg>
