<?xml version="1.0" encoding="utf-8"?>
<!-- Generator: Adobe Illustrator 17.1.0, SVG Export Plug-In . SVG Version: 6.00 Build 0)  -->
<!DOCTYPE svg PUBLIC "-//W3C//DTD SVG 1.1//EN" "http://www.w3.org/Graphics/SVG/1.1/DTD/svg11.dtd">
<svg version="1.1" id="Layer_1" xmlns="http://www.w3.org/2000/svg" xmlns:xlink="http://www.w3.org/1999/xlink" x="0px" y="0px"
	 viewBox="0 0 40 40" enable-background="new 0 0 40 40" xml:space="preserve">
<g>
	<path fill="#2F2F2F" d="M37.6,34.6H2.4c-1.2,0-2.2-1-2.2-2.2V6.9c0-1.2,1-2.2,2.2-2.2L20,6l17.6-1.3c1.2,0,2.2,1,2.2,2.2v25.5
		C39.8,33.6,38.8,34.6,37.6,34.6z"/>
	<path fill="#B5B5B5" d="M37,33H3c-0.5,0-0.9-0.4-0.9-0.9V8.6c0-0.5,0.4-0.9,0.9-0.9h34c0.5,0,0.9,0.4,0.9,0.9v23.5
		C37.9,32.6,37.5,33,37,33z"/>
	<path fill="#D3D3D3" d="M20,33L4,32.3c-0.5,0-0.8-0.4-0.8-0.9V7.9C3.1,7.4,3.6,7,4.1,7l15.1,0.7L20,33z"/>
	<path fill="#F1F1F1" d="M20,33L5.1,31.6c-0.5,0-0.8-0.4-0.8-0.9V7.2c0-0.5,0.4-0.9,1-0.9L20,7.7V33z"/>
	<path fill="#979797" d="M20,33l16-0.7c0.5,0,0.8-0.4,0.8-0.9V7.9c0-0.5-0.4-0.9-0.9-0.9L20.8,7.7L20,33z"/>
	<path fill="#D3D3D3" d="M20,7.7V33l14.9-1.4c0.5,0,0.8-0.4,0.8-0.9V10.8l-2.5-1.7l-1.6-2.5L20,7.7z"/>
	<polygon fill="#009BDA" points="23.7,26 24.2,26.9 24.7,27.8 24.7,6.8 22.6,7 22.6,27.8 23.1,26.9 	"/>
	<polygon fill="#F1F1F1" points="35.7,10.8 33.6,10.8 31.5,10.8 31.5,6.6 	"/>
</g>
</svg>
