<?xml version="1.0" encoding="utf-8"?>
<!-- Generator: Adobe Illustrator 17.1.0, SVG Export Plug-In . SVG Version: 6.00 Build 0)  -->
<!DOCTYPE svg PUBLIC "-//W3C//DTD SVG 1.1//EN" "http://www.w3.org/Graphics/SVG/1.1/DTD/svg11.dtd">
<svg version="1.1" id="Layer_1" xmlns="http://www.w3.org/2000/svg" xmlns:xlink="http://www.w3.org/1999/xlink" x="0px" y="0px"
	 viewBox="0 0 40 40" enable-background="new 0 0 40 40" xml:space="preserve">
<g>
	<path fill="#2F2F2F" d="M33.8,39.5H6.2c-0.7,0-1.2-0.6-1.2-1.2V1.7c0-0.7,0.6-1.2,1.2-1.2h27.6c0.7,0,1.2,0.6,1.2,1.2v36.5
		C35,38.9,34.5,39.5,33.8,39.5z"/>
	<path fill="#212121" d="M7.3,34.9l4.6,4.6h21.8c0.7,0,1.2-0.6,1.2-1.2V8.8l-2.8-2.8L7.3,34.9z"/>
	<path fill="#F1F1F1" d="M32.1,35.8H7.9C7.4,35.8,7,35.5,7,35V6.2c0-0.5,0.4-0.8,0.8-0.8h24.3c0.5,0,0.8,0.4,0.8,0.8V35
		C33,35.5,32.6,35.8,32.1,35.8z"/>
	<path fill="#009BDA" d="M27.6,4h-5c-0.2-1.3-1.3-2.3-2.6-2.3s-2.4,1-2.6,2.3h-4.6c-0.2,0-0.4,0.2-0.4,0.4v2.7
		c0,0.2,0.2,0.4,0.4,0.4h14.8c0.2,0,0.4-0.2,0.4-0.4V4.4C28,4.2,27.8,4,27.6,4z"/>
	<rect x="8.7" y="13.4" fill="#009BDA" width="3.7" height="3.7"/>
	<rect x="8.7" y="18" fill="#002060" width="3.7" height="3.7"/>
	<rect x="8.7" y="22.6" fill="#2F2F2F" width="3.7" height="3.7"/>
	<rect x="8.7" y="27.2" fill="#D3D3D3" width="3.7" height="3.7"/>
	<polygon opacity="0.15" fill="#FFFFFF" points="23,4 19.4,7.5 21.4,7.5 25,4 	"/>
	<path opacity="0.15" fill="#FFFFFF" d="M22.2,2.9l-4.6,4.6h1.1l3.9-3.9C22.4,3.4,22.3,3.1,22.2,2.9z"/>
	<g>
		<path fill="#009BDA" d="M25.5,20.4L18.9,27c0,0,0,0,0,0c0.4-0.3,1.1-0.1,1.7,0.5c0.6,0.6,0.8,1.4,0.5,1.7c0,0,0,0,0,0l6.7-6.7
			c0.5-0.5,0.4-1.4-0.2-2C26.9,20,26,19.9,25.5,20.4z"/>
		<path fill="#D3D3D3" d="M18.9,27C18.9,27,18.9,27,18.9,27l-0.1,0.2l-0.7,1.7c0.2,0.1,0.5,0.3,0.7,0.5c0.2,0.2,0.4,0.4,0.5,0.7
			l1.7-0.7l0.2-0.1c0,0,0,0,0,0c0.3-0.4,0.1-1.1-0.5-1.7C20,26.9,19.3,26.7,18.9,27z"/>
		<path fill="#009BDA" d="M17.2,30.9l1.9-0.8l0,0c-0.1-0.2-0.3-0.5-0.5-0.7c-0.2-0.2-0.4-0.4-0.7-0.5l0,0L17.2,30.9z"/>
	</g>
	<polygon fill="#FFFFFF" points="26.8,35.8 26.8,32.7 26.8,29.7 33,29.7 	"/>
	<path fill="#D3D3D3" d="M32.1,35.8c0.5,0,0.8-0.4,0.8-0.8v-5.3l-6.2,6.2H32.1z"/>
</g>
</svg>
