<?xml version="1.0" encoding="utf-8"?>
<!-- Generator: Adobe Illustrator 17.1.0, SVG Export Plug-In . SVG Version: 6.00 Build 0)  -->
<!DOCTYPE svg PUBLIC "-//W3C//DTD SVG 1.1//EN" "http://www.w3.org/Graphics/SVG/1.1/DTD/svg11.dtd">
<svg version="1.1" id="Layer_1" xmlns="http://www.w3.org/2000/svg" xmlns:xlink="http://www.w3.org/1999/xlink" x="0px" y="0px"
	 viewBox="0 0 48 48" enable-background="new 0 0 48 48" xml:space="preserve">
<g>
	<rect x="1.9" y="7" fill="#F1F1F1" width="43.5" height="30.1"/>
	<rect x="0.6" y="5.1" fill="#009BDA" width="45.7" height="2.9"/>
	<g>
		<rect x="23.3" y="37" fill="#D3D3D3" width="0.6" height="2.9"/>
	</g>
	<g>
		<path fill="#D3D3D3" d="M23.5,43.2c-1,0-1.8-0.8-1.8-1.8c0-1,0.8-1.8,1.8-1.8c1,0,1.8,0.8,1.8,1.8C25.3,42.4,24.5,43.2,23.5,43.2z
			 M23.5,40.2c-0.6,0-1.2,0.5-1.2,1.2c0,0.6,0.5,1.2,1.2,1.2c0.6,0,1.2-0.5,1.2-1.2C24.7,40.8,24.1,40.2,23.5,40.2z"/>
	</g>
	<rect x="28.5" y="11.1" fill="#009BDA" width="2.7" height="2.7"/>
	<rect x="28.5" y="16.4" fill="#002060" width="2.7" height="2.7"/>
	<rect x="28.5" y="21.7" fill="#2F2F2F" width="2.7" height="2.7"/>
	<rect x="28.5" y="27" fill="#D3D3D3" width="2.7" height="2.7"/>
	<polygon fill="#FFFFFF" points="39.2,36.8 39.2,33.7 39.2,30.6 45.4,30.6 	"/>
	<polygon fill="#D3D3D3" points="45.4,36.8 45.4,30.6 39.2,36.8 	"/>
	<g>
		<rect x="0.6" y="36.6" fill="#009BDA" width="45.7" height="0.8"/>
	</g>
	<g>
		<path fill="#009BDA" d="M33.9,19l4,4l0.6,0.6l2.2,2.2c1.5,1.5,4.1,1.7,5.6,0.2c1.7-1.6,1.7-4.2,0.1-5.8l-0.8-0.8l-2-2l-1.1-1.1
			c-0.3-0.3-0.9-0.4-1.2-0.1c-0.4,0.3-0.4,0.9-0.1,1.3l1.1,1.1l0,0c-0.1,0.1-0.3,0.1-0.5,0L40.3,17c-0.4-0.4-1-0.3-1.3,0.1
			c-0.3,0.4-0.2,0.9,0.1,1.2l1.8,1.8l0,0c-0.1,0.1-0.3,0.1-0.5,0l-1.6-1.6c-0.3-0.3-0.9-0.4-1.2-0.1c-0.4,0.3-0.4,0.9-0.1,1.3
			l1.9,1.9l0,0c-0.1,0.1-0.3,0.1-0.5,0l-3.8-3.8c-0.4-0.4-1-0.3-1.3,0.1C33.5,18.2,33.6,18.7,33.9,19z"/>
		<path fill="#009BDA" d="M36.6,24.6l1,1c0.7,0.7,1.8,0.7,2.5,0l-2.3-2.3c-0.1-0.1-0.1-0.1-0.2-0.2c-0.3-0.2-0.7-0.1-1,0.2
			C36.3,23.7,36.3,24.3,36.6,24.6z"/>
	</g>
	<g>
		<g>
			<path fill="#D3D3D3" d="M13.2,20l8.8-1.4c0.5,2.9-0.4,5.6-2.5,7.7L13.2,20z"/>
		</g>
	</g>
	<g>
		<g>
			<path fill="#009BDA" d="M13.2,20l-1.4-8.8c4.9-0.8,9.5,2.6,10.2,7.4l0,0L13.2,20z"/>
		</g>
	</g>
	<g>
		<g>
			<path fill="#2F2F2F" d="M13.2,20l6.3,6.3c-3.5,3.5-9.2,3.5-12.6,0s-3.5-9.2,0-12.6c1.4-1.4,3-2.2,4.9-2.5L13.2,20z"/>
		</g>
	</g>
</g>
</svg>
