<?xml version="1.0" encoding="utf-8"?>
<!-- Generator: Adobe Illustrator 17.1.0, SVG Export Plug-In . SVG Version: 6.00 Build 0)  -->
<!DOCTYPE svg PUBLIC "-//W3C//DTD SVG 1.1//EN" "http://www.w3.org/Graphics/SVG/1.1/DTD/svg11.dtd">
<svg version="1.1" id="Layer_1" xmlns="http://www.w3.org/2000/svg" xmlns:xlink="http://www.w3.org/1999/xlink" x="0px" y="0px"
	 viewBox="0 0 40 40" enable-background="new 0 0 40 40" xml:space="preserve">
<g>
	<path fill="#2F2F2F" d="M35.1,3.1H16.1V2.3c0-1.1-0.9-2.1-2.1-2.1H4.9c-1.1,0-2.1,0.9-2.1,2.1v2.9v3.2v20.7c0,1.1,0.9,2.1,2.1,2.1
		h30.1c1.1,0,2.1-0.9,2.1-2.1V5.2C37.1,4,36.2,3.1,35.1,3.1z"/>
	<path fill="#F1F1F1" d="M35.1,24.7H4.8V6.3c0-0.5,0.4-0.9,0.9-0.9h28.6c0.5,0,0.9,0.4,0.9,0.9V24.7z"/>
	<path fill="#2F2F2F" d="M28.3,7H4.9C3.8,7,2.9,7.9,2.9,9v20c0,1.1,0.9,2.1,2.1,2.1h30.1c1.1,0,2.1-0.9,2.1-2.1V14.8L29.3,7H28.3z"
		/>
	<path fill="#282828" d="M29.3,7h-1h-15l23.4,23.4c0.3-0.4,0.5-0.8,0.5-1.3V14.8L29.3,7z"/>
	<polygon fill="#212121" points="37.1,22.6 29.4,14.8 37.1,14.8 	"/>
	<polygon fill="#2F2F2F" points="37.1,14.8 33.2,14.8 29.3,14.8 29.3,7 	"/>
	<g>
		<path fill="#009BDA" d="M21.7,17L15,23.7l-1,1l-3.6,3.6c-2.5,2.5-2.7,6.7-0.3,9.3c2.6,2.8,6.9,2.8,9.5,0.2l1.4-1.4l3.3-3.3
			l1.8-1.8c0.5-0.5,0.6-1.4,0.1-2c-0.6-0.7-1.5-0.7-2.2-0.1L22.4,31l0,0c-0.2-0.2-0.2-0.6,0-0.8l2.7-2.7c0.6-0.6,0.6-1.6-0.1-2.2
			c-0.6-0.5-1.5-0.4-2,0.1l-3,3l0,0c-0.2-0.2-0.2-0.6,0-0.8l2.6-2.6c0.5-0.5,0.6-1.4,0.1-2c-0.6-0.7-1.5-0.7-2.2-0.1l-3.1,3.1l0,0
			c-0.2-0.2-0.2-0.6,0-0.8l6.3-6.3c0.6-0.6,0.6-1.6-0.1-2.2C23.1,16.4,22.2,16.5,21.7,17z"/>
		<path fill="#009BDA" d="M12.5,21.5l-1.7,1.7c-1.1,1.1-1.1,3,0,4.1l3.8-3.8c0.1-0.1,0.2-0.2,0.3-0.4c0.3-0.5,0.2-1.2-0.3-1.7
			C14,20.9,13.1,20.9,12.5,21.5z"/>
	</g>
</g>
</svg>
