<?xml version="1.0" encoding="utf-8"?>
<!-- Generator: Adobe Illustrator 17.1.0, SVG Export Plug-In . SVG Version: 6.00 Build 0)  -->
<!DOCTYPE svg PUBLIC "-//W3C//DTD SVG 1.1//EN" "http://www.w3.org/Graphics/SVG/1.1/DTD/svg11.dtd">
<svg version="1.1" id="Layer_1" xmlns="http://www.w3.org/2000/svg" xmlns:xlink="http://www.w3.org/1999/xlink" x="0px" y="0px"
	 viewBox="0 0 40 40" enable-background="new 0 0 40 40" xml:space="preserve">
<path fill="#009BDA" d="M17.5,25.6c-3.8,0-3.5-2.6-3.4-3c2-0.8,3.5-2.8,3.6-5h0l0,0c0.8,0,1.5-0.7,1.5-1.5c0-0.8-0.7-1.5-1.5-1.5
	v-1.2c0-0.1,0-0.2,0-0.2c0-3.2-2.6-5.8-5.8-5.8s-5.8,2.6-5.8,5.8c0,0.2,0,0.5,0,0.7v0.8c-0.8,0-1.5,0.7-1.5,1.5
	c0,0.8,0.7,1.5,1.5,1.5c0.1,2.2,1.5,4.1,3.5,5h0c0,0,0.7,3-3.4,3c-2.5,0-4.6,1.6-5.4,3.8C0.6,29.7,0.8,30,1.2,30h21.3
	c0.3,0,0.6-0.3,0.5-0.7C22.1,27.2,20,25.6,17.5,25.6z"/>
<path fill="#D3D3D3" d="M32.6,25.6c-3.8,0-3.5-2.6-3.4-3c2-0.8,3.5-2.8,3.6-5h0l0,0c0.8,0,1.5-0.7,1.5-1.5c0-0.8-0.7-1.5-1.5-1.5
	v-1.2c0-0.1,0-0.2,0-0.2c0-3.2-2.6-5.8-5.8-5.8s-5.8,2.6-5.8,5.8c0,0.2,0,0.5,0,0.7v0.8c-0.8,0-1.5,0.7-1.5,1.5
	c0,0.8,0.7,1.5,1.5,1.5c0.1,2.2,1.5,4.1,3.5,5h0c0,0,0.7,3-3.4,3c-2.5,0-4.6,1.6-5.4,3.8c-0.1,0.3,0.1,0.7,0.5,0.7h21.3
	c0.3,0,0.6-0.3,0.5-0.7C37.2,27.2,35.1,25.6,32.6,25.6z"/>
<polygon fill="#009BDA" points="27.4,21.8 27.4,26.4 33,21.8 "/>
<rect x="27.4" y="12.2" fill="#2F2F2F" width="12.2" height="9.1"/>
<polygon fill="#212121" points="27.4,21.3 39.6,21.3 39.6,17.4 36.2,14 27.4,14 "/>
<rect x="24.2" y="13.7" fill="#009BDA" width="12.2" height="9.1"/>
<path fill="#2F2F2F" d="M26,27.7c-4.4,0-4.1-3-4-3.5c2.4-1,4-3.2,4.2-5.9h0l0,0c1,0,1.8-0.8,1.8-1.8s-0.8-1.8-1.8-1.8v-1.4
	c0-0.1,0-0.2,0-0.3c0-3.8-3-6.8-6.8-6.8s-6.8,3-6.8,6.8c0,0.3,0,0.5,0.1,0.8v0.9c-1,0-1.8,0.8-1.8,1.8c0,1,0.8,1.7,1.7,1.8
	c0.2,2.6,1.8,4.8,4.1,5.8h0c0,0,0.8,3.5-4,3.5c-3,0-5.5,1.9-6.4,4.5c-0.1,0.3,0.1,0.7,0.5,0.7h25.1c0.3,0,0.6-0.3,0.5-0.7
	C31.5,29.6,29,27.7,26,27.7z"/>
</svg>
