<?xml version="1.0" encoding="utf-8"?>
<!-- Generator: Adobe Illustrator 17.1.0, SVG Export Plug-In . SVG Version: 6.00 Build 0)  -->
<!DOCTYPE svg PUBLIC "-//W3C//DTD SVG 1.1//EN" "http://www.w3.org/Graphics/SVG/1.1/DTD/svg11.dtd">
<svg version="1.1" id="Layer_1" xmlns="http://www.w3.org/2000/svg" xmlns:xlink="http://www.w3.org/1999/xlink" x="0px" y="0px"
	 viewBox="0 0 48 48" enable-background="new 0 0 48 48" xml:space="preserve">
<g>
	<path fill="#2F2F2F" d="M7,2.7v30.1C7,34,8,35,9.2,35h21.7L41,24.9V2.7c0-1.2-1-2.2-2.2-2.2H9.2C8,0.5,7,1.5,7,2.7z"/>
	<circle fill="#F1F1F1" cx="23.9" cy="17.9" r="11"/>
	<polygon fill="#009BDA" points="28.3,17.9 24.9,19.8 21.5,21.8 21.5,17.9 21.5,13.9 24.9,15.9 	"/>
	<polygon fill="#212121" points="20.7,35 30.8,24.9 30.8,35 	"/>
	<polygon fill="#393939" points="30.8,35 30.8,29.9 30.8,24.7 41,24.7 	"/>
	<g>
		<path fill="#009BDA" d="M23.5,23.9l-6.9,6.9l-1.1,1.1l-3.7,3.7c-2.6,2.6-2.8,7-0.3,9.7c2.7,2.9,7.2,2.9,9.9,0.2l1.4-1.4l3.4-3.4
			l1.9-1.9c0.6-0.6,0.6-1.5,0.1-2.1c-0.6-0.7-1.6-0.7-2.2-0.1l-2,2l0,0c-0.2-0.2-0.2-0.6,0-0.8l2.8-2.8c0.6-0.6,0.6-1.7-0.1-2.2
			c-0.6-0.5-1.5-0.4-2.1,0.1l-3.1,3.1l0,0c-0.2-0.2-0.2-0.6,0-0.8l2.7-2.7c0.6-0.6,0.6-1.5,0.1-2.1c-0.6-0.7-1.6-0.7-2.2-0.1
			l-3.2,3.2l0,0c-0.2-0.2-0.2-0.6,0-0.8l6.6-6.6c0.6-0.6,0.6-1.7-0.1-2.2C24.9,23.2,24,23.3,23.5,23.9z"/>
		<path fill="#009BDA" d="M13.9,28.6l-1.8,1.8c-1.2,1.2-1.2,3.1,0,4.3l3.9-3.9c0.1-0.1,0.2-0.3,0.3-0.4c0.3-0.6,0.2-1.3-0.3-1.7
			C15.4,28,14.5,28,13.9,28.6z"/>
	</g>
</g>
</svg>
