<?xml version="1.0" encoding="utf-8"?>
<!-- Generator: Adobe Illustrator 17.1.0, SVG Export Plug-In . SVG Version: 6.00 Build 0)  -->
<!DOCTYPE svg PUBLIC "-//W3C//DTD SVG 1.1//EN" "http://www.w3.org/Graphics/SVG/1.1/DTD/svg11.dtd">
<svg version="1.1" id="Layer_1" xmlns="http://www.w3.org/2000/svg" xmlns:xlink="http://www.w3.org/1999/xlink" x="0px" y="0px"
	 viewBox="0 0 40 40" enable-background="new 0 0 40 40" xml:space="preserve">
<circle fill="#2F2F2F" stroke="#212121" stroke-miterlimit="10" cx="19.9" cy="20.3" r="13.4"/>
<g>
	<path fill="#212121" d="M19.7,33.9C19.7,33.9,19.6,33.9,19.7,33.9L19.7,33.9c-3.8-0.1-6.9-6.1-6.9-13.6s3.1-13.5,6.8-13.6v0l0.1,0
		c3.8,0.1,6.8,6.1,6.8,13.6S23.4,33.9,19.7,33.9L19.7,33.9z M19.6,7.1c-3.6,0-6.5,5.9-6.5,13.2c0,7.3,2.9,13.2,6.5,13.2
		c3.6,0,6.5-5.9,6.5-13.2C26.1,13.1,23.2,7.2,19.6,7.1z"/>
</g>
<g>
	<path fill="#212121" d="M19.7,33.9C19.7,33.9,19.7,33.9,19.7,33.9L19.7,33.9C14,33.9,9.5,27.8,9.5,20.3c0-7.4,4.5-13.5,10.1-13.6v0
		l0.1,0c5.6,0.1,10.1,6.1,10.1,13.6C29.8,27.8,25.3,33.9,19.7,33.9L19.7,33.9z M19.7,7.1c-5.4,0-9.8,5.9-9.8,13.2
		c0,7.3,4.4,13.2,9.8,13.2c5.4,0,9.8-5.9,9.8-13.2C29.5,13.1,25.1,7.2,19.7,7.1z"/>
</g>
<g>
	<path fill="#212121" d="M19.8,33.9C19.8,33.9,19.8,33.9,19.8,33.9L19.8,33.9c-2.2-0.1-3.5-6.9-3.5-13.6c0-6.6,1.3-13.5,3.4-13.6v0
		c0,0,0,0,0,0v0c2.1,0.1,3.4,6.9,3.4,13.6C23.3,27,22,33.9,19.8,33.9L19.8,33.9z M19.8,7.1c-1.5,0-3.1,5.3-3.1,13.2
		c0,7.9,1.6,13.2,3.1,13.2c1.5,0,3.1-5.3,3.1-13.2C22.9,12.5,21.3,7.2,19.8,7.1z"/>
</g>
<g>
	<path fill="#212121" d="M19.9,27.3c-7.5,0-13.5-3.1-13.6-6.8h0c0,0,0,0,0,0s0,0,0,0h0c0.1-3.8,6.1-6.8,13.6-6.8
		c7.5,0,13.5,3.1,13.6,6.8h0l0,0.1C33.4,24.3,27.3,27.3,19.9,27.3z M6.6,20.5c0,3.6,5.9,6.5,13.2,6.5c7.3,0,13.2-2.9,13.2-6.5
		c0-3.6-5.9-6.5-13.2-6.5C12.6,14,6.7,16.9,6.6,20.5z"/>
</g>
<g>
	<path fill="#212121" d="M19.9,30.7c-7.5,0-13.5-4.5-13.6-10.1h0c0,0,0,0,0,0c0,0,0,0,0,0h0c0.1-5.6,6.1-10.1,13.6-10.1
		s13.5,4.5,13.6,10.1h0l0,0.1C33.4,26.1,27.3,30.7,19.9,30.7z M6.6,20.5c0,5.4,5.9,9.8,13.2,9.8c7.3,0,13.2-4.4,13.2-9.8
		c0-5.4-5.9-9.8-13.2-9.8C12.6,10.7,6.7,15.1,6.6,20.5z"/>
</g>
<g>
	<path fill="#212121" d="M19.9,24.1c-6.6,0-13.5-1.3-13.6-3.4h0c0,0,0,0,0,0c0,0,0,0,0,0h0c0.1-2.1,6.9-3.4,13.6-3.4
		c6.6,0,13.5,1.3,13.6,3.4h0h0h0c0,0,0,0,0,0c0,0,0,0,0,0h0C33.4,22.8,26.5,24.1,19.9,24.1z M6.6,20.6c0,1.5,5.3,3.1,13.2,3.1
		c7.9,0,13.2-1.6,13.2-3.1c0-1.5-5.3-3.1-13.2-3.1C12,17.6,6.7,19.2,6.6,20.6z"/>
</g>
<g>
	<rect x="19.5" y="6.9" fill="#212121" width="0.4" height="26.6"/>
</g>
<g>
	<rect x="6.5" y="20.8" fill="#212121" width="26.6" height="0.4"/>
</g>
<path fill="#009BDA" d="M12,18.4l1-1.8l1,1.8l1,1.8V6.8C13.5,7.2,12.1,8,10.9,9v11.1L12,18.4z"/>
<polygon fill="#F1F1F1" points="13,13.4 13.3,14.2 14.2,14.3 13.5,14.8 13.7,15.7 13,15.2 12.2,15.7 12.5,14.8 11.8,14.3 12.7,14.2 
	"/>
<g>
	<path fill="none" d="M2.8,21.5c0,0.5,0.4,0.8,0.8,0.8h2.6c-0.1-0.6-0.1-1.1-0.1-1.7H3.7C3.2,20.6,2.8,21,2.8,21.5z"/>
</g>
<path fill="none" d="M33.1,21.9h2.7c0.5,0,0.9-0.4,0.9-0.9c0-0.5-0.4-0.9-0.9-0.9h-2.6c0,0.1,0,0.1,0,0.2
	C33.2,20.9,33.2,21.4,33.1,21.9z"/>
<path fill="#009BDA" d="M11.4,22.6l-1.5-1.3v1H7.2H6.9H6.4H3.8c-0.5,0-0.8-0.4-0.8-0.8c0-0.5,0.4-0.8,0.8-0.8h2.5c0-0.1,0-0.2,0-0.3
	c0-0.5,0-0.9,0.1-1.4H3.8c-1.9,0-3.4,1.5-3.4,3.4c0,1.9,1.5,3.4,3.4,3.4h3.1h0.5h2.5v1l1.5-1.3l1.5-1.3L11.4,22.6z"/>
<path fill="#D3D3D3" d="M36,18.4h-2.8c0.1,0.6,0.1,1.2,0.1,1.8H36c0.5,0,0.9,0.4,0.9,0.9c0,0.5-0.4,0.9-0.9,0.9h-2.7h-0.6h-0.2h-2.9
	v-1L28,22.3l-1.6,1.4l1.6,1.4l1.6,1.4v-1h2.8h0.3H36c2,0,3.6-1.6,3.6-3.6S38,18.4,36,18.4z"/>
</svg>
